<svg width="1024" height="1024" viewBox="0 0 1024 1024" xmlns="http://www.w3.org/2000/svg" shape-rendering="crispEdges">
  <!-- Background -->
  <rect width="1024" height="1024" fill="#16082e"/>

  <!-- Skin -->
  <rect x="341.3333333333333" y="426.66666666666663" width="42.666666666666664" height="42.666666666666664" fill="#7fd8ff"/>
  <rect x="384" y="426.66666666666663" width="42.666666666666664" height="42.666666666666664" fill="#7fd8ff"/>
  <rect x="426.66666666666663" y="426.66666666666663" width="42.666666666666664" height="42.666666666666664" fill="#7fd8ff"/>
  <rect x="469.3333333333333" y="426.66666666666663" width="42.666666666666664" height="42.666666666666664" fill="#7fd8ff"/>
  <rect x="512" y="426.66666666666663" width="42.666666666666664" height="42.666666666666664" fill="#7fd8ff"/>
  <rect x="554.6666666666666" y="426.66666666666663" width="42.666666666666664" height="42.666666666666664" fill="#7fd8ff"/>
  <rect x="597.3333333333333" y="426.66666666666663" width="42.666666666666664" height="42.666666666666664" fill="#7fd8ff"/>
  <rect x="640" y="426.66666666666663" width="42.666666666666664" height="42.666666666666664" fill="#7fd8ff"/>
  <rect x="341.3333333333333" y="469.3333333333333" width="42.666666666666664" height="42.666666666666664" fill="#7fd8ff"/>
  <rect x="384" y="469.3333333333333" width="42.666666666666664" height="42.666666666666664" fill="#7fd8ff"/>
  <rect x="426.66666666666663" y="469.3333333333333" width="42.666666666666664" height="42.666666666666664" fill="#7fd8ff"/>
  <rect x="469.3333333333333" y="469.3333333333333" width="42.666666666666664" height="42.666666666666664" fill="#7fd8ff"/>
  <rect x="512" y="469.3333333333333" width="42.666666666666664" height="42.666666666666664" fill="#7fd8ff"/>
  <rect x="554.6666666666666" y="469.3333333333333" width="42.666666666666664" height="42.666666666666664" fill="#7fd8ff"/>
  <rect x="597.3333333333333" y="469.3333333333333" width="42.666666666666664" height="42.666666666666664" fill="#7fd8ff"/>
  <rect x="640" y="469.3333333333333" width="42.666666666666664" height="42.666666666666664" fill="#7fd8ff"/>
  <rect x="341.3333333333333" y="512" width="42.666666666666664" height="42.666666666666664" fill="#7fd8ff"/>
  <rect x="426.66666666666663" y="512" width="42.666666666666664" height="42.666666666666664" fill="#7fd8ff"/>
  <rect x="469.3333333333333" y="512" width="42.666666666666664" height="42.666666666666664" fill="#7fd8ff"/>
  <rect x="512" y="512" width="42.666666666666664" height="42.666666666666664" fill="#7fd8ff"/>
  <rect x="554.6666666666666" y="512" width="42.666666666666664" height="42.666666666666664" fill="#7fd8ff"/>
  <rect x="640" y="512" width="42.666666666666664" height="42.666666666666664" fill="#7fd8ff"/>
  <rect x="341.3333333333333" y="554.6666666666666" width="42.666666666666664" height="42.666666666666664" fill="#7fd8ff"/>
  <rect x="384" y="554.6666666666666" width="42.666666666666664" height="42.666666666666664" fill="#7fd8ff"/>
  <rect x="426.66666666666663" y="554.6666666666666" width="42.666666666666664" height="42.666666666666664" fill="#7fd8ff"/>
  <rect x="469.3333333333333" y="554.6666666666666" width="42.666666666666664" height="42.666666666666664" fill="#7fd8ff"/>
  <rect x="512" y="554.6666666666666" width="42.666666666666664" height="42.666666666666664" fill="#7fd8ff"/>
  <rect x="554.6666666666666" y="554.6666666666666" width="42.666666666666664" height="42.666666666666664" fill="#7fd8ff"/>
  <rect x="597.3333333333333" y="554.6666666666666" width="42.666666666666664" height="42.666666666666664" fill="#7fd8ff"/>
  <rect x="640" y="554.6666666666666" width="42.666666666666664" height="42.666666666666664" fill="#7fd8ff"/>
  <rect x="341.3333333333333" y="597.3333333333333" width="42.666666666666664" height="42.666666666666664" fill="#7fd8ff"/>
  <rect x="384" y="597.3333333333333" width="42.666666666666664" height="42.666666666666664" fill="#7fd8ff"/>
  <rect x="426.66666666666663" y="597.3333333333333" width="42.666666666666664" height="42.666666666666664" fill="#7fd8ff"/>
  <rect x="469.3333333333333" y="597.3333333333333" width="42.666666666666664" height="42.666666666666664" fill="#7fd8ff"/>
  <rect x="512" y="597.3333333333333" width="42.666666666666664" height="42.666666666666664" fill="#7fd8ff"/>
  <rect x="554.6666666666666" y="597.3333333333333" width="42.666666666666664" height="42.666666666666664" fill="#7fd8ff"/>
  <rect x="597.3333333333333" y="597.3333333333333" width="42.666666666666664" height="42.666666666666664" fill="#7fd8ff"/>
  <rect x="640" y="597.3333333333333" width="42.666666666666664" height="42.666666666666664" fill="#7fd8ff"/>
  <rect x="341.3333333333333" y="640" width="42.666666666666664" height="42.666666666666664" fill="#7fd8ff"/>
  <rect x="384" y="640" width="42.666666666666664" height="42.666666666666664" fill="#7fd8ff"/>
  <rect x="597.3333333333333" y="640" width="42.666666666666664" height="42.666666666666664" fill="#7fd8ff"/>
  <rect x="640" y="640" width="42.666666666666664" height="42.666666666666664" fill="#7fd8ff"/>
  <rect x="341.3333333333333" y="682.6666666666666" width="42.666666666666664" height="42.666666666666664" fill="#7fd8ff"/>
  <rect x="384" y="682.6666666666666" width="42.666666666666664" height="42.666666666666664" fill="#7fd8ff"/>
  <rect x="597.3333333333333" y="682.6666666666666" width="42.666666666666664" height="42.666666666666664" fill="#7fd8ff"/>
  <rect x="640" y="682.6666666666666" width="42.666666666666664" height="42.666666666666664" fill="#7fd8ff"/>
  <rect x="341.3333333333333" y="725.3333333333333" width="42.666666666666664" height="42.666666666666664" fill="#7fd8ff"/>
  <rect x="384" y="725.3333333333333" width="42.666666666666664" height="42.666666666666664" fill="#7fd8ff"/>
  <rect x="426.66666666666663" y="725.3333333333333" width="42.666666666666664" height="42.666666666666664" fill="#7fd8ff"/>
  <rect x="469.3333333333333" y="725.3333333333333" width="42.666666666666664" height="42.666666666666664" fill="#7fd8ff"/>
  <rect x="512" y="725.3333333333333" width="42.666666666666664" height="42.666666666666664" fill="#7fd8ff"/>
  <rect x="554.6666666666666" y="725.3333333333333" width="42.666666666666664" height="42.666666666666664" fill="#7fd8ff"/>
  <rect x="597.3333333333333" y="725.3333333333333" width="42.666666666666664" height="42.666666666666664" fill="#7fd8ff"/>
  <rect x="640" y="725.3333333333333" width="42.666666666666664" height="42.666666666666664" fill="#7fd8ff"/>
  <rect x="426.66666666666663" y="768" width="42.666666666666664" height="42.666666666666664" fill="#7fd8ff"/>
  <rect x="469.3333333333333" y="768" width="42.666666666666664" height="42.666666666666664" fill="#7fd8ff"/>
  <rect x="512" y="768" width="42.666666666666664" height="42.666666666666664" fill="#7fd8ff"/>
  <rect x="554.6666666666666" y="768" width="42.666666666666664" height="42.666666666666664" fill="#7fd8ff"/>
  <rect x="426.66666666666663" y="810.6666666666666" width="42.666666666666664" height="42.666666666666664" fill="#7fd8ff"/>
  <rect x="469.3333333333333" y="810.6666666666666" width="42.666666666666664" height="42.666666666666664" fill="#7fd8ff"/>
  <rect x="512" y="810.6666666666666" width="42.666666666666664" height="42.666666666666664" fill="#7fd8ff"/>
  <rect x="554.6666666666666" y="810.6666666666666" width="42.666666666666664" height="42.666666666666664" fill="#7fd8ff"/>
  <rect x="426.66666666666663" y="853.3333333333333" width="42.666666666666664" height="42.666666666666664" fill="#7fd8ff"/>
  <rect x="469.3333333333333" y="853.3333333333333" width="42.666666666666664" height="42.666666666666664" fill="#7fd8ff"/>
  <rect x="512" y="853.3333333333333" width="42.666666666666664" height="42.666666666666664" fill="#7fd8ff"/>
  <rect x="554.6666666666666" y="853.3333333333333" width="42.666666666666664" height="42.666666666666664" fill="#7fd8ff"/>
  <rect x="298.66666666666663" y="512" width="42.666666666666664" height="42.666666666666664" fill="#7fd8ff"/>
  <rect x="298.66666666666663" y="554.6666666666666" width="42.666666666666664" height="42.666666666666664" fill="#7fd8ff"/>
  <rect x="298.66666666666663" y="597.3333333333333" width="42.666666666666664" height="42.666666666666664" fill="#7fd8ff"/>
  <rect x="682.6666666666666" y="512" width="42.666666666666664" height="42.666666666666664" fill="#7fd8ff"/>
  <rect x="682.6666666666666" y="554.6666666666666" width="42.666666666666664" height="42.666666666666664" fill="#7fd8ff"/>
  <rect x="682.6666666666666" y="597.3333333333333" width="42.666666666666664" height="42.666666666666664" fill="#7fd8ff"/>
  <rect x="469.3333333333333" y="554.6666666666666" width="42.666666666666664" height="42.666666666666664" fill="#7fd8ff"/>
  <rect x="512" y="554.6666666666666" width="42.666666666666664" height="42.666666666666664" fill="#7fd8ff"/>
  <rect x="469.3333333333333" y="597.3333333333333" width="42.666666666666664" height="42.666666666666664" fill="#7fd8ff"/>
  <rect x="512" y="597.3333333333333" width="42.666666666666664" height="42.666666666666664" fill="#7fd8ff"/>

  <!-- Hair -->
  <rect x="469.3333333333333" y="128" width="42.666666666666664" height="42.666666666666664" fill="#84cc16"/>
  <rect x="512" y="128" width="42.666666666666664" height="42.666666666666664" fill="#84cc16"/>
  <rect x="469.3333333333333" y="170.66666666666666" width="42.666666666666664" height="42.666666666666664" fill="#84cc16"/>
  <rect x="512" y="170.66666666666666" width="42.666666666666664" height="42.666666666666664" fill="#84cc16"/>
  <rect x="469.3333333333333" y="213.33333333333331" width="42.666666666666664" height="42.666666666666664" fill="#84cc16"/>
  <rect x="512" y="213.33333333333331" width="42.666666666666664" height="42.666666666666664" fill="#84cc16"/>
  <rect x="469.3333333333333" y="256" width="42.666666666666664" height="42.666666666666664" fill="#84cc16"/>
  <rect x="512" y="256" width="42.666666666666664" height="42.666666666666664" fill="#84cc16"/>
  <rect x="469.3333333333333" y="298.66666666666663" width="42.666666666666664" height="42.666666666666664" fill="#84cc16"/>
  <rect x="512" y="298.66666666666663" width="42.666666666666664" height="42.666666666666664" fill="#84cc16"/>
  <rect x="426.66666666666663" y="341.3333333333333" width="42.666666666666664" height="42.666666666666664" fill="#84cc16"/>
  <rect x="469.3333333333333" y="341.3333333333333" width="42.666666666666664" height="42.666666666666664" fill="#84cc16"/>
  <rect x="512" y="341.3333333333333" width="42.666666666666664" height="42.666666666666664" fill="#84cc16"/>
  <rect x="554.6666666666666" y="341.3333333333333" width="42.666666666666664" height="42.666666666666664" fill="#84cc16"/>
  <rect x="426.66666666666663" y="384" width="42.666666666666664" height="42.666666666666664" fill="#84cc16"/>
  <rect x="469.3333333333333" y="384" width="42.666666666666664" height="42.666666666666664" fill="#84cc16"/>
  <rect x="512" y="384" width="42.666666666666664" height="42.666666666666664" fill="#84cc16"/>
  <rect x="554.6666666666666" y="384" width="42.666666666666664" height="42.666666666666664" fill="#84cc16"/>

  <!-- Eyes -->
  <rect x="341.3333333333333" y="512" width="42.666666666666664" height="42.666666666666664" fill="#000000"/>
  <rect x="384" y="512" width="42.666666666666664" height="42.666666666666664" fill="#111111"/>
  <rect x="426.66666666666663" y="512" width="42.666666666666664" height="42.666666666666664" fill="#000000"/>
  <rect x="554.6666666666666" y="512" width="42.666666666666664" height="42.666666666666664" fill="#000000"/>
  <rect x="597.3333333333333" y="512" width="42.666666666666664" height="42.666666666666664" fill="#111111"/>
  <rect x="640" y="512" width="42.666666666666664" height="42.666666666666664" fill="#000000"/>
  <rect x="469.3333333333333" y="512" width="42.666666666666664" height="42.666666666666664" fill="#000000"/>
  <rect x="512" y="512" width="42.666666666666664" height="42.666666666666664" fill="#000000"/>

  <!-- Mouth -->
  <rect x="469.3333333333333" y="640" width="42.666666666666664" height="42.666666666666664" fill="#000000"/>
  <rect x="512" y="640" width="42.666666666666664" height="42.666666666666664" fill="#000000"/>
  <rect x="554.6666666666666" y="640" width="42.666666666666664" height="42.666666666666664" fill="#ffffff"/>
  <rect x="597.3333333333333" y="640" width="42.666666666666664" height="42.666666666666664" fill="#ffffff"/>
  <rect x="640" y="640" width="42.666666666666664" height="42.666666666666664" fill="#ff6600"/>

  <!-- Accessories -->
  <rect x="426.66666666666663" y="768" width="42.666666666666664" height="42.666666666666664" fill="#ffd700"/>
  <rect x="469.3333333333333" y="768" width="42.666666666666664" height="42.666666666666664" fill="#ffd700"/>
  <rect x="512" y="768" width="42.666666666666664" height="42.666666666666664" fill="#ffd700"/>
  <rect x="554.6666666666666" y="768" width="42.666666666666664" height="42.666666666666664" fill="#ffd700"/>
  <rect x="469.3333333333333" y="810.6666666666666" width="42.666666666666664" height="42.666666666666664" fill="#ffd700"/>
  <rect x="512" y="810.6666666666666" width="42.666666666666664" height="42.666666666666664" fill="#ffd700"/>
</svg>